<?xml version="1.0" encoding="iso-8859-1"?>
<!-- Uploaded to: SVG Repo, www.svgrepo.com, Generator: SVG Repo Mixer Tools -->
<svg height="800px" width="800px" version="1.1" id="Capa_1" xmlns="http://www.w3.org/2000/svg" xmlns:xlink="http://www.w3.org/1999/xlink" 
	 viewBox="0 0 28.054 28.054" xml:space="preserve">
<g>
	<path style="fill:#010002;" d="M27.961,1.867v11.204c0,0.319-0.258,0.578-0.578,0.578H12.144c-0.319,0-0.578-0.259-0.578-0.578
		v-0.885l1.156-0.775v1.082h14.082V2.444H12.721v4.229c-0.051,0.039-0.106,0.073-0.154,0.117l-0.162,0.112
		c-0.195-0.51-0.492-0.912-0.839-1.242V1.867c0-0.319,0.26-0.578,0.578-0.578h15.239C27.703,1.289,27.961,1.547,27.961,1.867z
		 M14.316,9.461l0.692-0.464h-0.001c0.001-0.004,0.003-0.004,0.005-0.007c0.352-0.349,0.406-0.868,0.188-1.277l5.599-3.799
		l-0.254-0.375l-5.646,3.83c-0.177-0.128-0.375-0.209-0.583-0.216c-0.296-0.01-0.597,0.09-0.823,0.317c0,0-0.005,0.006-0.007,0.006
		l-0.138,0.096l-1.254,0.856V8.064c-0.233-2.769-3.442-2.728-3.442-2.728h-1.39L6.094,7.258L4.92,5.337H3.587
		c-3.621,0.068-3.493,2.727-3.493,2.727v6.206h0.002c0.001,0.016-0.002,0.035-0.002,0.048c0,0.591,0.477,1.066,1.066,1.066
		c0.587,0,1.064-0.477,1.064-1.066c0-0.013,0-0.032-0.002-0.048h0.002V8.53H2.89L2.882,26.613c0,0.795,0.646,1.441,1.438,1.441
		c0.795,0,1.439-0.646,1.439-1.441v-11.67H6.4v11.683l0.012,0.013c0.01,0.781,0.646,1.415,1.432,1.415
		c0.789,0,1.431-0.643,1.431-1.432L9.271,8.5h0.693v1.888c0,0.002,0,0.007,0,0.009c0,0.587,0.477,1.065,1.063,1.065
		c0.173,0,0.328-0.049,0.475-0.125l0.005,0.007l1.84-1.234L14.316,9.461z M6.073,4.874c1.346,0,2.437-1.091,2.437-2.437
		S7.419,0,6.073,0S3.636,1.092,3.636,2.437S4.727,4.874,6.073,4.874z"/>
</g>
</svg>