<?xml version="1.0" encoding="iso-8859-1"?>
<!-- Uploaded to: SVG Repo, www.svgrepo.com, Generator: SVG Repo Mixer Tools -->
<svg fill="#000000" height="800px" width="800px" version="1.1" id="Capa_1" xmlns="http://www.w3.org/2000/svg" xmlns:xlink="http://www.w3.org/1999/xlink" 
	 viewBox="0 0 343.501 343.501" xml:space="preserve">
<path d="M64.552,332.042c-4.418,0-8-3.582-8-8v-29.46H44.534c-4.418,0-8-3.582-8-8s3.582-8,8-8h19.842
	c0.117-0.002,0.235-0.002,0.353,0h261.189c4.418,0,8,3.582,8,8s-3.582,8-8,8H72.552v29.46
	C72.552,328.46,68.971,332.042,64.552,332.042z M7.999,294.587c-1.001,0-2.02-0.189-3.005-0.589
	c-4.094-1.661-6.066-6.327-4.405-10.421l21.742-53.585c9.604-23.664,26.819-55.124,65.279-55.124h28.838
	c20.719,0,37.778,9.221,50.701,27.406c0.344,0.465,3.79,4.936,6.83,8.881c2.19,2.843,4.543,5.895,6.5,8.44
	c2.693,3.503,2.036,8.525-1.467,11.219c-3.503,2.694-8.525,2.036-11.218-1.467c-1.954-2.541-4.302-5.589-6.489-8.427
	c-5.854-7.598-6.933-9.003-7.213-9.399c-6.237-8.777-13.234-14.635-21.414-17.804l-24.187,33.144
	c-1.506,2.063-3.908,3.284-6.462,3.284s-4.956-1.221-6.462-3.284l-24.187-33.144c-14.029,5.446-24.739,18.92-34.224,42.291
	l-21.741,53.584C14.154,292.702,11.16,294.587,7.999,294.587z M89.109,190.869l12.921,17.706l12.921-17.706H89.109z
	 M225.597,263.385h-87.934c-4.418,0-8-3.582-8-8s3.582-8,8-8h87.934c4.418,0,8,3.582,8,8S230.016,263.385,225.597,263.385z
	 M335.502,196.862c-3.161,0-6.155-1.885-7.416-4.994l-17.976-44.304c-7.448-18.352-15.785-29.147-26.546-33.775l-19.345,26.509
	c-1.506,2.063-3.907,3.284-6.462,3.284c-2.555,0-4.956-1.221-6.462-3.284l-19.353-26.518c-6.102,2.61-11.376,7.17-16.115,13.838
	c-0.486,0.683-13.385,17.904-17.485,23.241c-2.692,3.504-7.714,4.161-11.218,1.47c-3.503-2.692-4.161-7.715-1.469-11.218
	c4.09-5.323,16.519-21.926,17.173-22.82c10.917-15.363,25.4-23.184,43.006-23.184h23.844c32.636,0,47.167,26.504,55.259,46.44
	l17.976,44.305c1.661,4.094-0.311,8.76-4.405,10.421C337.522,196.672,336.503,196.862,335.502,196.862z M249.799,111.107
	l7.958,10.903l7.957-10.903H249.799z M297.508,180.639H177.147c-4.418,0-8-3.582-8-8s3.582-8,8-8h120.361c4.418,0,8,3.582,8,8
	S301.926,180.639,297.508,180.639z M102.03,160.667c-23.977,0-43.483-19.507-43.483-43.484c0-19.743,13.228-36.456,31.285-41.742
	c0.093-0.03,0.188-0.059,0.283-0.086c2.178-0.619,4.402-1.066,6.651-1.338c1.402-0.17,2.827-0.273,4.267-0.306
	c0.017-0.011,0.03-0.001,0.046-0.002c0.015-0.001,0.031,0,0.045-0.001c0.013,0,0.027,0,0.04,0c0.011-0.001,0.021-0.001,0.035-0.001
	c0.256-0.005,0.518-0.012,0.769-0.008c0.016-0.001,0.034-0.001,0.054,0c0.004,0,0.009,0,0.009,0c0.011,0,0.019-0.001,0.031,0
	c0.022,0,0.043,0,0.065,0h0c0.012,0,0.024,0.001,0.034,0c0.011,0,0.022,0,0.034,0c0.012,0,0.027,0,0.036,0
	c0.012,0,0.026,0.001,0.038,0.001c0.013,0,0.027,0,0.04,0c0.001,0,0.004,0,0.005,0c22.137,0.14,40.463,16.636,42.925,38.576
	c0.182,1.61,0.275,3.248,0.275,4.906C145.512,141.161,126.006,160.667,102.03,160.667z M86.71,94.375
	c-7.333,4.941-12.164,13.32-12.164,22.808c0,15.155,12.329,27.484,27.483,27.484c13.166,0,24.198-9.305,26.867-21.685
	c-0.429,0.013-0.859,0.019-1.289,0.019C108.849,123.001,92.781,111.254,86.71,94.375z M102.053,89.7
	c4.037,10.228,13.96,17.281,25.504,17.302c-4.022-10.049-13.814-17.189-25.256-17.301c-0.013,0-0.027,0-0.04,0
	c-0.012,0.001-0.025,0.001-0.039,0c-0.012-0.001-0.026-0.002-0.04-0.001c-0.013,0-0.026,0-0.039,0c-0.014,0-0.027,0-0.04,0
	C102.087,89.699,102.071,89.699,102.053,89.7z M257.757,86.136c-20.588,0-37.338-16.75-37.338-37.338
	c0-20.589,16.75-37.34,37.338-37.34c20.589,0,37.339,16.751,37.339,37.34C295.096,69.386,278.345,86.136,257.757,86.136z
	 M257.757,27.458c-11.766,0-21.338,9.573-21.338,21.34c0,11.766,9.572,21.338,21.338,21.338c11.767,0,21.339-9.572,21.339-21.338
	C279.096,37.032,269.523,27.458,257.757,27.458z"/>
</svg>