<svg width="512" height="512" viewBox="0 0 512 512" fill="none" xmlns="http://www.w3.org/2000/svg"><path fill="#FCFCFC" d="M0 0h512v512H0z"/><path d="M286.487 299.853c15.517-9.483 25.889-26.514 25.889-46.018 0-29.73-24.16-53.935-53.837-53.935-29.676 0-53.836 24.205-53.836 53.935 0 19.504 10.413 36.535 25.889 46.018-29.347 9.567-50.256 33.73-50.256 61.976v89.026c0 11.959 9.714 21.649 21.609 21.649 3.416 0 6.585-.866 9.466-2.268v9.979a6.172 6.172 0 0 0 6.175 6.185 6.17 6.17 0 0 0 6.173-6.185V376.262a6.171 6.171 0 0 0-6.173-6.186 6.172 6.172 0 0 0-6.175 6.186v73.109a5.641 5.641 0 0 0-.205 1.484c0 5.114-4.157 9.278-9.261 9.278-5.104 0-9.261-4.164-9.261-9.278v-89.026c0-29.812 29.553-54.059 65.855-54.059 36.303 0 65.856 24.247 65.856 54.059v89.026c0 5.114-4.157 9.278-9.261 9.278-5.104 0-8.89-3.834-9.22-8.7v-75.171a6.171 6.171 0 0 0-6.173-6.186 6.172 6.172 0 0 0-6.175 6.186v73.975s-.041.412-.041.618c0 .207.041.413.041.578v28.782a6.172 6.172 0 0 0 6.175 6.185 6.17 6.17 0 0 0 6.173-6.185v-9.855c2.799 1.319 5.886 2.144 9.22 2.144 11.937 0 21.609-9.732 21.609-21.649v-89.026c0-28.246-20.909-52.409-50.256-61.976Zm-69.395-46.018c0-22.927 18.604-41.564 41.488-41.564 22.885 0 41.49 18.637 41.49 41.564S281.465 295.4 258.58 295.4c-22.884 0-41.488-18.638-41.488-41.565ZM420.585 307.193c13.872-8.906 23.133-24.452 23.133-42.183 0-27.627-22.433-50.101-50.01-50.101-27.577 0-50.009 22.474-50.009 50.101 0 17.731 9.261 33.277 23.132 42.183-11.031 3.752-20.991 9.731-28.812 17.69-2.387 2.433-2.346 6.35.082 8.742 2.429 2.391 6.339 2.35 8.726-.083 11.484-11.711 28.565-18.432 46.84-18.432 33.093 0 60.052 22.061 60.052 49.235v81.851a8.018 8.018 0 0 1-8.026 8.041c-4.445 0-7.697-3.34-7.985-7.505v-69.109a6.172 6.172 0 0 0-6.174-6.186 6.172 6.172 0 0 0-6.174 6.186v68.078s-.041.33-.041.536c0 .207.041.33.041.536v26.473a6.172 6.172 0 0 0 6.174 6.185 6.172 6.172 0 0 0 6.174-6.185v-8.247c2.47 1.031 5.145 1.65 7.985 1.65 11.237 0 20.374-9.154 20.374-20.412v-81.851c0-25.896-18.892-48.039-45.522-57.152l.04-.041Zm-64.538-42.183c0-20.782 16.875-37.73 37.661-37.73s37.661 16.906 37.661 37.73c0 20.823-16.875 37.729-37.661 37.729s-37.661-16.906-37.661-37.729Z" fill="#CCC"/><path d="M183.299 329.46c-8.232-10.185-19.715-17.855-32.804-22.308 13.871-8.907 23.09-24.452 23.09-42.142 0-27.627-22.431-50.101-50.009-50.101-27.576 0-50.009 22.474-50.009 50.101 0 17.69 9.261 33.277 23.132 42.183-26.63 9.113-45.523 31.256-45.523 57.152v81.851c0 11.257 9.138 20.411 20.374 20.411 2.923 0 5.68-.659 8.191-1.773v8.371a6.171 6.171 0 0 0 6.174 6.185 6.171 6.171 0 0 0 6.174-6.185v-95.582a6.172 6.172 0 0 0-6.174-6.186 6.172 6.172 0 0 0-6.174 6.186v67.171a5.24 5.24 0 0 0-.164 1.402 8.018 8.018 0 0 1-8.026 8.041 8.018 8.018 0 0 1-8.027-8.041v-81.851c0-27.133 26.919-49.235 60.052-49.235 20.169 0 38.937 8.289 50.133 22.143 2.14 2.639 6.051 3.052 8.685.908 2.634-2.145 3.046-6.062.905-8.701Zm-97.384-64.45c0-20.782 16.876-37.73 37.661-37.73 20.786 0 37.661 16.906 37.661 37.73 0 20.823-16.875 37.729-37.661 37.729-20.785 0-37.66-16.906-37.66-37.729Z" fill="#CCC"/><path d="M258.539 25.6c-70.342 0-133.357 32.122-175.176 82.511-.617.495-1.11 1.113-1.522 1.856C49.9 149.263 30.72 199.323 30.72 253.835c0 22.473 3.252 44.699 9.672 66.058.988 3.258 4.446 5.114 7.697 4.124 3.252-.99 5.104-4.453 4.117-7.711-6.092-20.164-9.18-41.194-9.18-62.471 0-50.224 17.247-96.448 46.058-133.188 21.321 10.514 44.042 18.968 67.873 25.153-9.632 29.029-13.542 51.956-13.748 53.193-.576 3.381 1.729 6.556 5.063 7.092.33.042.7.083 1.029.083 2.964 0 5.598-2.145 6.092-5.155.082-.577 4.075-23.628 13.665-52.286 26.795 6.062 54.742 9.361 83.266 9.773v22.308a6.171 6.171 0 0 0 6.174 6.185 6.17 6.17 0 0 0 6.174-6.185v-22.267c28.483-.412 56.471-3.711 83.266-9.772 9.591 28.658 13.583 51.708 13.666 52.286.494 3.01 3.128 5.154 6.091 5.154.33 0 .659 0 1.029-.082 3.375-.578 5.639-3.753 5.063-7.093-.206-1.237-4.075-24.163-13.748-53.234 23.791-6.185 46.593-14.597 67.873-25.112 28.812 36.699 46.058 82.923 46.058 133.147 0 21.896-3.252 43.503-9.673 64.203-1.029 3.257.823 6.721 4.075 7.752a5.791 5.791 0 0 0 1.852.289 6.149 6.149 0 0 0 5.886-4.371c6.791-21.896 10.249-44.74 10.249-67.873C486.4 127.986 384.2 25.6 258.539 25.6ZM97.275 110.915c32.146-36.37 76.31-61.811 126.196-70.058-22.144 15.793-41.448 42.513-56.8 79.088a313.062 313.062 0 0 0-5.557 14.144c-22.35-5.773-43.753-13.525-63.839-23.215v.041Zm76.023 26.143c14.734-39.42 39.678-84.697 79.109-97.232v106.345c-27.084-.412-53.632-3.505-79.109-9.154v.041Zm91.457 9.154V39.785c39.389 12.576 64.373 57.852 79.109 97.273-25.478 5.649-52.027 8.742-79.109 9.154Zm91.292-12.04a418.336 418.336 0 0 0-5.556-14.144c-15.353-36.576-34.657-63.296-56.801-79.089 49.886 8.206 94.05 33.648 126.196 70.017-20.086 9.691-41.448 17.484-63.798 23.216h-.041Z" fill="#CCC"/></svg>